Coordinates
version=1
nRows=29
nColumns=24
inDegrees=yes

Units are S.I. units (second, meters, Newtons, ...)
Angles are in degrees.

endheader
time	pelvis_tilt	pelvis_list	pelvis_rotation	pelvis_tx	pelvis_ty	pelvis_tz	hip_flexion_r	hip_adduction_r	hip_rotation_r	knee_angle_r	ankle_angle_r	subtalar_angle_r	mtp_angle_r	hip_flexion_l	hip_adduction_l	hip_rotation_l	knee_angle_l	ankle_angle_l	subtalar_angle_l	mtp_angle_l	lumbar_extension	lumbar_bending	lumbar_rotation
      0.72900000	     -0.27152587	     -3.80230287	      5.48393413	     -0.40692807	      1.03131168	      0.29637791	     10.75882637	      9.91818706	     -1.42816728	    -15.88727043	      3.81019689	    -12.39241638	      9.37115234	     19.25589943	     -7.81524820	     -2.72614901	    -68.43464859	     -6.29065756	     -1.98156118	     -0.62468257	     -4.59146380	      1.79335452	     -1.66493723
      0.73316667	     -0.16076650	     -3.73137069	      5.40159353	     -0.40168926	      1.03202406	      0.29692090	     10.24292649	      9.92973389	     -1.29997328	    -15.76538330	      3.97864766	    -12.29628960	      9.27235401	     19.60189960	     -7.80672805	     -2.86007575	    -68.06227843	     -5.49646062	     -2.06076105	     -0.65241204	     -4.78231398	      1.64724640	     -1.48039103
      0.73733333	     -0.08062987	     -3.64234372	      5.31505429	     -0.39644074	      1.03270298	      0.29740089	      9.75612692	      9.90895858	     -1.19039081	    -15.64158507	      4.13388202	    -12.20004460	      9.15795764	     19.95545720	     -7.75858722	     -2.99352354	    -67.61603723	     -4.74678733	     -2.18490369	     -0.68660202	     -4.90258360	      1.51387140	     -1.31651262
      0.74150000	      0.00310280	     -3.56169858	      5.21895629	     -0.39120402	      1.03336762	      0.29786929	      9.26496259	      9.89467596	     -1.08574368	    -15.51409804	      4.28617211	    -12.10073920	      9.03960153	     20.28898472	     -7.71784376	     -3.13299099	    -67.11497435	     -4.00379369	     -2.29096103	     -0.71985410	     -5.03103065	      1.38932580	     -1.16413103
      0.74566667	      0.06392339	     -3.47295837	      5.11469277	     -0.38596987	      1.03399334	      0.29831460	      8.79660407	      9.86483022	     -0.98789325	    -15.38504053	      4.44489261	    -11.98552875	      8.90092645	     20.62615738	     -7.66115252	     -3.27867411	    -66.55108387	     -3.28456447	     -2.37229357	     -0.75880171	     -5.12564613	      1.24480380	     -1.00236067
      0.74983333	      0.13355437	     -3.38715084	      5.00128423	     -0.38078004	      1.03461003	      0.29872224	      8.31912058	      9.83560598	     -0.87743634	    -15.25207684	      4.59773826	    -11.87465101	      8.77187412	     20.93811210	     -7.59891567	     -3.42170987	    -65.93251286	     -2.57034462	     -2.43060113	     -0.79109280	     -5.25191024	      1.12496551	     -0.85561549
      0.75400000	      0.16394346	     -3.27280556	      4.86540790	     -0.37561338	      1.03517679	      0.29910726	      7.89476858	      9.76500375	     -0.78096445	    -15.15540880	      4.83774506	    -11.66842367	      7.78019830	     21.26341575	     -7.49164916	     -3.57894947	    -65.24094839	     -1.91443532	     -2.54403265	     -1.12890099	     -5.31722707	      0.95614191	     -0.48837626
      0.75816667	      0.21465496	     -3.17639079	      4.73068248	     -0.37046721	      1.03572854	      0.29945886	      7.43429892	      9.71717054	     -0.65023898	    -15.01155692	      4.94661723	    -11.59968187	      7.72450373	     21.55446920	     -7.40455595	     -3.73102009	    -64.50462846	     -1.21264409	     -2.54350979	     -1.13143163	     -5.44254332	      0.84115577	     -0.51128456
      0.76233333	      0.28995078	     -3.07757682	      4.60075901	     -0.36531896	      1.03632208	      0.29976359	      6.93318000	      9.66211662	     -0.53495418	    -14.83851892	      5.08833918	    -11.46153306	      7.60238461	     21.79651664	     -7.30511540	     -3.86989066	    -63.70084580	     -0.55252918	     -2.53824138	     -1.15547585	     -5.57792783	      0.70795992	     -0.34279744
      0.76650000	      0.34196068	     -2.96521558	      4.44517748	     -0.36020069	      1.03687480	      0.30004476	      6.46398522	      9.58781114	     -0.39738947	    -14.68422773	      5.24521648	    -11.34493191	      7.50038355	     22.03553823	     -7.18404297	     -4.02601190	    -62.82856625	      0.06514981	     -2.54066641	     -1.17339097	     -5.68472580	      0.56612836	     -0.18621304
      0.77066667	      0.36230723	     -2.84449917	      4.27149417	     -0.35513143	      1.03733341	      0.30031068	      6.04360825	      9.49880425	     -0.25796048	    -14.55594732	      5.39430765	    -11.25351111	      7.43877668	     22.29053306	     -7.04711632	     -4.19385481	    -61.90337291	      0.66508943	     -2.56367226	     -1.17971344	     -5.77101268	      0.42329254	     -0.06501797
      0.77483333	      0.38473207	     -2.72946769	      4.09968040	     -0.35005795	      1.03778665	      0.30053213	      5.61031611	      9.41086788	     -0.11780762	    -14.40295941	      5.53879875	    -11.13932890	      7.37743072	     22.52259904	     -6.90682051	     -4.34676028	    -60.91782084	      1.23293081	     -2.58161122	     -1.18724005	     -5.85493946	      0.28619100	      0.08942968
      0.77900000	      0.41140102	     -2.61988338	      3.92543984	     -0.34498716	      1.03821171	      0.30072402	      5.16622724	      9.32489073	      0.01673406	    -14.23475691	      5.71344077	    -10.99286027	      7.27825895	     22.73120289	     -6.76882574	     -4.49957389	    -59.87629721	      1.75746226	     -2.58321340	     -1.20925021	     -5.92523083	      0.14987382	      0.32337926
      0.78316667	      0.40828821	     -2.50002294	      3.73072653	     -0.33997765	      1.03857222	      0.30089474	      4.77341047	      9.22281273	      0.17112447	    -14.10156479	      5.84520521	    -10.90219670	      7.21723617	     22.94918378	     -6.60811160	     -4.65260445	    -58.77369151	      2.25916950	     -2.64679330	     -1.22160485	     -5.99789722	      0.02045563	      0.44958882
      0.78733333	      0.45891401	     -2.38737068	      3.54691197	     -0.33493828	      1.03900723	      0.30103661	      4.29679765	      9.12738666	      0.31827080	    -13.91226449	      6.00352276	    -10.75393299	      7.09751398	     23.08414893	     -6.45478433	     -4.79650017	    -57.60406437	      2.70450679	     -2.70378438	     -1.25958113	     -6.11063972	     -0.10090533	      0.70579734
      0.79150000	      0.46134542	     -2.27037408	      3.34786353	     -0.32991640	      1.03932420	      0.30116212	      3.88790899	      9.02109509	      0.47010078	    -13.75456971	      6.15940263	    -10.65963805	      6.99406188	     23.25000669	     -6.29083066	     -4.95095457	    -56.37952608	      3.10618429	     -2.80151186	     -1.29785032	     -6.15971898	     -0.22886949	      0.87741203
      0.79566667	      0.41829102	     -2.16590598	      3.14187027	     -0.32492455	      1.03953578	      0.30127253	      3.53898065	      8.92361322	      0.63741103	    -13.61246599	      6.28390260	    -10.58544730	      6.92821290	     23.45040396	     -6.12946831	     -5.09046067	    -55.10827716	      3.49332877	     -2.93333830	     -1.32505304	     -6.18299186	     -0.33824464	      1.00126173
      0.79983333	      0.43598224	     -2.06533693	      2.94948504	     -0.31990796	      1.03981036	      0.30135236	      3.10420416	      8.82935532	      0.79274137	    -13.42650807	      6.43814880	    -10.47767423	      6.81719285	     23.56086358	     -5.97114484	     -5.22185447	    -53.77114452	      3.78801898	     -3.11318861	     -1.38377953	     -6.24802866	     -0.44135276	      1.23769455
      0.80400000	      0.42472110	     -1.96631117	      2.74770877	     -0.31489921	      1.04003074	      0.30142654	      2.70943337	      8.73272134	      0.95532928	    -13.25534880	      6.57202712	    -10.39691696	      6.70830137	     23.67694379	     -5.80858052	     -5.35306875	    -52.37180539	      4.05642214	     -3.33446410	     -1.45004600	     -6.29054989	     -0.54377836	      1.41785905
      0.80816667	      0.37798213	     -1.87392516	      2.53933797	     -0.30991130	      1.04014391	      0.30150650	      2.36704522	      8.64082261	      1.13217340	    -13.11031122	      6.69139940	    -10.34292650	      6.63641684	     23.81509603	     -5.65045580	     -5.48088408	    -50.92993061	      4.30718007	     -3.57288489	     -1.50084295	     -6.30507829	     -0.63891854	      1.54158452
      0.81233333	      0.37987185	     -1.79650571	      2.35633605	     -0.30487536	      1.04031628	      0.30154519	      1.94654035	      8.56349603	      1.28802012	    -12.90885550	      6.82220071	    -10.26372024	      6.52020195	     23.87569297	     -5.49976388	     -5.58829802	    -49.41786344	      4.45122151	     -3.90920699	     -1.59458957	     -6.34820127	     -0.70874822	      1.76123576
      0.81650000	      0.32252790	     -1.71970055	      2.15097375	     -0.29986275	      1.04034397	      0.30161672	      1.61761417	      8.48442207	      1.47092540	    -12.76682476	      6.94249480	    -10.22404344	      6.44433126	     23.97892490	     -5.35428291	     -5.71335175	    -47.86267885	      4.61567394	     -4.22239348	     -1.66472069	     -6.33959870	     -0.79270759	      1.88275139
      0.82066667	      0.30200320	     -1.66431892	      1.97991903	     -0.29480189	      1.04042221	      0.30162696	      1.22103550	      8.42561439	      1.62533240	    -12.55976532	      7.05539674	    -10.17168605	      6.32678270	     24.02261676	     -5.21688286	     -5.80454117	    -46.24801193	      4.66284884	     -4.65478706	     -1.78363299	     -6.35508471	     -0.83047647	      2.08486888
      0.82483333	      0.23812840	     -1.61051378	      1.79995071	     -0.28974363	      1.04037300	      0.30165606	      0.88929654	      8.36683524	      1.78955920	    -12.39308568	      7.17380722	    -10.13488081	      6.20613371	     24.09163283	     -5.08273464	     -5.90692834	    -44.58833757	      4.70545023	     -5.08958087	     -1.91723813	     -6.32563408	     -0.88149717	      2.24486329
      0.82900000	      0.19046509	     -1.56797054	      1.62697750	     -0.28466885	      1.04033145	      0.30167917	      0.53714733	      8.31974194	      1.95342754	    -12.21873672	      7.28031843	    -10.10618731	      6.08177363	     24.11858296	     -4.95846102	     -6.00688923	    -42.87318497	      4.71206675	     -5.55495714	     -2.06673229	     -6.31326957	     -0.91597993	      2.39507138
      0.83316667	      0.14346518	     -1.52927108	      1.46118380	     -0.27957114	      1.04025294	      0.30169439	      0.18524890	      8.27553803	      2.11611009	    -12.04858617	      7.38639454	    -10.08327432	      5.95391691	     24.12053380	     -4.83688431	     -6.11156289	    -41.10802816	      4.68535797	     -6.04255870	     -2.23241262	     -6.29597553	     -0.94761192	      2.53916535
      0.83733333	      0.08105155	     -1.50601660	      1.30495707	     -0.27445343	      1.04010880	      0.30169987	     -0.14970069	      8.24674202	      2.27384725	    -11.87800735	      7.48818347	    -10.06648032	      5.82447847	     24.12114430	     -4.72899474	     -6.21709916	    -39.30326624	      4.64130116	     -6.53568653	     -2.41108832	     -6.26589668	     -0.95971193	      2.67148057
      0.84150000	     -0.00561011	     -1.49758605	      1.15353333	     -0.26932132	      1.03988257	      0.30169158	     -0.45112700	      8.23196933	      2.43022222	    -11.72377316	      7.58402223	    -10.04966916	      5.68203100	     24.12867382	     -4.63095466	     -6.31500765	    -37.45842038	      4.57434894	     -7.04236283	     -2.61908020	     -6.20096915	     -0.95875690	      2.80472709
      0.84566667	     -0.07908026	     -1.49331262	      1.00681700	     -0.26414062	      1.03964436	      0.30169273	     -0.76798601	      8.22171114	      2.56651393	    -11.57176083	      7.69768037	    -10.05054863	      5.55458601	     24.09705272	     -4.54615023	     -6.45423915	    -35.57183726	      4.49213721	     -7.52081684	     -2.81599321	     -6.12663888	     -0.95424612	      2.92095957
